<mxfile host="app.diagrams.net" modified="2024-02-27T09:31:42.660Z" agent="Mozilla/5.0 (Windows NT 10.0; Win64; x64) AppleWebKit/537.36 (KHTML, like Gecko) Chrome/122.0.0.0 Safari/537.36" etag="Cu-NUCkFzDKvCrEs9ILu" version="23.1.6" type="device">
  <diagram id="R2lEEEUBdFMjLlhIrx00" name="Page-1">
    <mxGraphModel dx="2284" dy="1838" grid="1" gridSize="10" guides="1" tooltips="1" connect="1" arrows="1" fold="1" page="1" pageScale="1" pageWidth="850" pageHeight="1100" math="0" shadow="0" extFonts="Permanent Marker^https://fonts.googleapis.com/css?family=Permanent+Marker">
      <root>
        <mxCell id="0" />
        <mxCell id="1" parent="0" />
        <mxCell id="-0y_CvrlQRl--kAV1j4P-14" value="&lt;br&gt;회원정보&lt;div&gt;&lt;br&gt;&lt;/div&gt;" style="whiteSpace=wrap;html=1;align=center;" vertex="1" parent="1">
          <mxGeometry x="385" y="140" width="150" height="60" as="geometry" />
        </mxCell>
        <mxCell id="-0y_CvrlQRl--kAV1j4P-17" value="&lt;br&gt;회원이름&lt;div&gt;&lt;br&gt;&lt;/div&gt;" style="ellipse;whiteSpace=wrap;html=1;align=center;" vertex="1" parent="1">
          <mxGeometry x="180" y="330" width="100" height="40" as="geometry" />
        </mxCell>
        <mxCell id="-0y_CvrlQRl--kAV1j4P-18" value="" style="endArrow=none;html=1;rounded=0;entryX=0;entryY=0.5;entryDx=0;entryDy=0;exitX=1;exitY=0.5;exitDx=0;exitDy=0;" edge="1" parent="1" source="-0y_CvrlQRl--kAV1j4P-17" target="-0y_CvrlQRl--kAV1j4P-14">
          <mxGeometry relative="1" as="geometry">
            <mxPoint x="120" y="250" as="sourcePoint" />
            <mxPoint x="280" y="250" as="targetPoint" />
            <Array as="points">
              <mxPoint x="350" y="230" />
            </Array>
          </mxGeometry>
        </mxCell>
        <mxCell id="-0y_CvrlQRl--kAV1j4P-19" value="1" style="resizable=0;html=1;whiteSpace=wrap;align=right;verticalAlign=bottom;" connectable="0" vertex="1" parent="-0y_CvrlQRl--kAV1j4P-18">
          <mxGeometry x="1" relative="1" as="geometry" />
        </mxCell>
        <mxCell id="-0y_CvrlQRl--kAV1j4P-20" value="&lt;span style=&quot;border-bottom: 1px dotted&quot;&gt;주민번호&lt;br&gt;&lt;/span&gt;" style="ellipse;whiteSpace=wrap;html=1;align=center;" vertex="1" parent="1">
          <mxGeometry x="310" y="350" width="100" height="40" as="geometry" />
        </mxCell>
        <mxCell id="-0y_CvrlQRl--kAV1j4P-21" value="전화번호" style="ellipse;whiteSpace=wrap;html=1;align=center;" vertex="1" parent="1">
          <mxGeometry x="520" y="330" width="100" height="40" as="geometry" />
        </mxCell>
        <mxCell id="-0y_CvrlQRl--kAV1j4P-22" value="&lt;span style=&quot;border-bottom: 1px dotted&quot;&gt;휴대전화번&lt;/span&gt;" style="ellipse;whiteSpace=wrap;html=1;align=center;" vertex="1" parent="1">
          <mxGeometry x="435" y="270" width="100" height="40" as="geometry" />
        </mxCell>
        <mxCell id="-0y_CvrlQRl--kAV1j4P-23" value="&lt;span style=&quot;border-bottom: 1px dotted&quot;&gt;주소&lt;/span&gt;" style="ellipse;whiteSpace=wrap;html=1;align=center;" vertex="1" parent="1">
          <mxGeometry x="610" y="210" width="100" height="40" as="geometry" />
        </mxCell>
        <mxCell id="-0y_CvrlQRl--kAV1j4P-24" value="&lt;span style=&quot;border-bottom: 1px dotted&quot;&gt;우편번호&lt;/span&gt;" style="ellipse;whiteSpace=wrap;html=1;align=center;" vertex="1" parent="1">
          <mxGeometry x="620" y="150" width="100" height="40" as="geometry" />
        </mxCell>
        <mxCell id="-0y_CvrlQRl--kAV1j4P-25" value="&lt;span style=&quot;border-bottom: 1px dotted&quot;&gt;등록일&lt;/span&gt;" style="ellipse;whiteSpace=wrap;html=1;align=center;" vertex="1" parent="1">
          <mxGeometry x="640" y="90" width="100" height="40" as="geometry" />
        </mxCell>
        <mxCell id="-0y_CvrlQRl--kAV1j4P-26" value="" style="endArrow=none;html=1;rounded=0;entryX=0.093;entryY=0.983;entryDx=0;entryDy=0;entryPerimeter=0;" edge="1" parent="1" source="-0y_CvrlQRl--kAV1j4P-20" target="-0y_CvrlQRl--kAV1j4P-14">
          <mxGeometry relative="1" as="geometry">
            <mxPoint x="340" y="380" as="sourcePoint" />
            <mxPoint x="500" y="380" as="targetPoint" />
            <Array as="points" />
          </mxGeometry>
        </mxCell>
        <mxCell id="-0y_CvrlQRl--kAV1j4P-27" value="1" style="resizable=0;html=1;whiteSpace=wrap;align=right;verticalAlign=bottom;" connectable="0" vertex="1" parent="-0y_CvrlQRl--kAV1j4P-26">
          <mxGeometry x="1" relative="1" as="geometry" />
        </mxCell>
        <mxCell id="-0y_CvrlQRl--kAV1j4P-30" value="비디오 테이프" style="whiteSpace=wrap;html=1;align=center;" vertex="1" parent="1">
          <mxGeometry x="-270" y="-40" width="100" height="40" as="geometry" />
        </mxCell>
        <mxCell id="-0y_CvrlQRl--kAV1j4P-31" value="&lt;span style=&quot;border-bottom: 1px dotted&quot;&gt;장르&lt;span style=&quot;white-space: pre;&quot;&gt;&#x9;&lt;/span&gt;&lt;/span&gt;" style="ellipse;whiteSpace=wrap;html=1;align=center;" vertex="1" parent="1">
          <mxGeometry x="-475" y="20" width="100" height="40" as="geometry" />
        </mxCell>
        <mxCell id="-0y_CvrlQRl--kAV1j4P-32" value="&lt;span style=&quot;border-bottom: 1px dotted&quot;&gt;등급&lt;/span&gt;" style="ellipse;whiteSpace=wrap;html=1;align=center;" vertex="1" parent="1">
          <mxGeometry x="-230" y="180" width="100" height="40" as="geometry" />
        </mxCell>
        <mxCell id="-0y_CvrlQRl--kAV1j4P-33" value="&lt;span style=&quot;border-bottom: 1px dotted&quot;&gt;일련번호&lt;/span&gt;" style="ellipse;whiteSpace=wrap;html=1;align=center;" vertex="1" parent="1">
          <mxGeometry x="-370" y="-230" width="100" height="40" as="geometry" />
        </mxCell>
        <mxCell id="-0y_CvrlQRl--kAV1j4P-34" value="영화 제목" style="ellipse;whiteSpace=wrap;html=1;align=center;" vertex="1" parent="1">
          <mxGeometry x="-450" y="-180" width="100" height="40" as="geometry" />
        </mxCell>
        <mxCell id="-0y_CvrlQRl--kAV1j4P-35" value="&lt;span style=&quot;border-bottom: 1px dotted&quot;&gt;제작&lt;/span&gt;" style="ellipse;whiteSpace=wrap;html=1;align=center;" vertex="1" parent="1">
          <mxGeometry x="-460" y="-105" width="100" height="40" as="geometry" />
        </mxCell>
        <mxCell id="-0y_CvrlQRl--kAV1j4P-36" value="&lt;span style=&quot;border-bottom: 1px dotted&quot;&gt;제작국&lt;/span&gt;" style="ellipse;whiteSpace=wrap;html=1;align=center;" vertex="1" parent="1">
          <mxGeometry x="-270" y="-260" width="100" height="40" as="geometry" />
        </mxCell>
        <mxCell id="-0y_CvrlQRl--kAV1j4P-37" value="&lt;span style=&quot;border-bottom: 1px dotted&quot;&gt;주연 배우&lt;/span&gt;" style="ellipse;whiteSpace=wrap;html=1;align=center;" vertex="1" parent="1">
          <mxGeometry x="-170" y="-230" width="100" height="40" as="geometry" />
        </mxCell>
        <mxCell id="-0y_CvrlQRl--kAV1j4P-38" value="&lt;span style=&quot;border-bottom: 1px dotted&quot;&gt;감독&lt;/span&gt;" style="ellipse;whiteSpace=wrap;html=1;align=center;" vertex="1" parent="1">
          <mxGeometry x="-470" y="80" width="100" height="40" as="geometry" />
        </mxCell>
        <mxCell id="-0y_CvrlQRl--kAV1j4P-39" value="&lt;span style=&quot;border-bottom: 1px dotted&quot;&gt;개봉일&lt;/span&gt;" style="ellipse;whiteSpace=wrap;html=1;align=center;" vertex="1" parent="1">
          <mxGeometry x="-80" y="-170" width="100" height="40" as="geometry" />
        </mxCell>
        <mxCell id="-0y_CvrlQRl--kAV1j4P-40" value="&lt;span style=&quot;border-bottom: 1px dotted&quot;&gt;비디오 출시일&lt;/span&gt;" style="ellipse;whiteSpace=wrap;html=1;align=center;" vertex="1" parent="1">
          <mxGeometry x="-475" y="-50" width="80" height="60" as="geometry" />
        </mxCell>
        <mxCell id="-0y_CvrlQRl--kAV1j4P-41" value="&lt;span style=&quot;border-bottom: 1px dotted&quot;&gt;파손 여부&lt;/span&gt;" style="ellipse;whiteSpace=wrap;html=1;align=center;" vertex="1" parent="1">
          <mxGeometry x="-420" y="140" width="100" height="40" as="geometry" />
        </mxCell>
        <mxCell id="-0y_CvrlQRl--kAV1j4P-42" value="&lt;span style=&quot;border-bottom: 1px dotted&quot;&gt;대여 여부&lt;/span&gt;" style="ellipse;whiteSpace=wrap;html=1;align=center;" vertex="1" parent="1">
          <mxGeometry x="-330" y="180" width="100" height="40" as="geometry" />
        </mxCell>
        <mxCell id="-0y_CvrlQRl--kAV1j4P-45" value="비디오 대여" style="shape=rhombus;perimeter=rhombusPerimeter;whiteSpace=wrap;html=1;align=center;" vertex="1" parent="1">
          <mxGeometry y="140" width="120" height="60" as="geometry" />
        </mxCell>
        <mxCell id="-0y_CvrlQRl--kAV1j4P-46" value="대여일&amp;nbsp;" style="ellipse;whiteSpace=wrap;html=1;align=center;" vertex="1" parent="1">
          <mxGeometry x="140" y="200" width="100" height="50" as="geometry" />
        </mxCell>
        <mxCell id="-0y_CvrlQRl--kAV1j4P-48" value="미납 여부" style="ellipse;whiteSpace=wrap;html=1;align=center;" vertex="1" parent="1">
          <mxGeometry x="590" y="30" width="100" height="40" as="geometry" />
        </mxCell>
        <mxCell id="-0y_CvrlQRl--kAV1j4P-51" value="" style="edgeStyle=entityRelationEdgeStyle;fontSize=12;html=1;endArrow=ERzeroToMany;endFill=1;rounded=0;" edge="1" parent="1" source="-0y_CvrlQRl--kAV1j4P-45" target="-0y_CvrlQRl--kAV1j4P-30">
          <mxGeometry width="100" height="100" relative="1" as="geometry">
            <mxPoint x="200" y="130" as="sourcePoint" />
            <mxPoint x="300" y="30" as="targetPoint" />
            <Array as="points">
              <mxPoint x="80" y="-30" />
              <mxPoint x="90" y="-50" />
            </Array>
          </mxGeometry>
        </mxCell>
        <mxCell id="-0y_CvrlQRl--kAV1j4P-52" value="" style="edgeStyle=entityRelationEdgeStyle;fontSize=12;html=1;endArrow=ERzeroToMany;endFill=1;rounded=0;" edge="1" parent="1" source="-0y_CvrlQRl--kAV1j4P-45" target="-0y_CvrlQRl--kAV1j4P-14">
          <mxGeometry width="100" height="100" relative="1" as="geometry">
            <mxPoint x="220" as="sourcePoint" />
            <mxPoint x="370" y="90" as="targetPoint" />
          </mxGeometry>
        </mxCell>
        <mxCell id="-0y_CvrlQRl--kAV1j4P-54" value="&lt;span style=&quot;border-bottom: 1px dotted&quot;&gt;fk:일련번호&lt;/span&gt;" style="ellipse;whiteSpace=wrap;html=1;align=center;" vertex="1" parent="1">
          <mxGeometry x="-70" y="200" width="100" height="40" as="geometry" />
        </mxCell>
        <mxCell id="-0y_CvrlQRl--kAV1j4P-56" value="fk:회원이름" style="ellipse;whiteSpace=wrap;html=1;align=center;" vertex="1" parent="1">
          <mxGeometry x="-30" y="260" width="100" height="40" as="geometry" />
        </mxCell>
        <mxCell id="-0y_CvrlQRl--kAV1j4P-57" value="fk:주민번호" style="ellipse;whiteSpace=wrap;html=1;align=center;" vertex="1" parent="1">
          <mxGeometry x="30" y="215" width="100" height="40" as="geometry" />
        </mxCell>
        <mxCell id="-0y_CvrlQRl--kAV1j4P-58" value="대여일" style="ellipse;whiteSpace=wrap;html=1;align=center;" vertex="1" parent="1">
          <mxGeometry x="260" y="-95" width="100" height="40" as="geometry" />
        </mxCell>
        <mxCell id="-0y_CvrlQRl--kAV1j4P-59" value="Attribute" style="ellipse;whiteSpace=wrap;html=1;align=center;" vertex="1" parent="1">
          <mxGeometry x="270" y="-320" width="100" height="40" as="geometry" />
        </mxCell>
        <mxCell id="-0y_CvrlQRl--kAV1j4P-62" value="연체료" style="ellipse;whiteSpace=wrap;html=1;align=center;" vertex="1" parent="1">
          <mxGeometry x="190" y="-140" width="100" height="40" as="geometry" />
        </mxCell>
        <mxCell id="-0y_CvrlQRl--kAV1j4P-63" value="fk:일련번호" style="ellipse;whiteSpace=wrap;html=1;align=center;" vertex="1" parent="1">
          <mxGeometry x="440" y="-280" width="100" height="40" as="geometry" />
        </mxCell>
        <mxCell id="-0y_CvrlQRl--kAV1j4P-64" value="계산" style="shape=rhombus;perimeter=rhombusPerimeter;whiteSpace=wrap;html=1;align=center;" vertex="1" parent="1">
          <mxGeometry x="40" y="-55" width="120" height="60" as="geometry" />
        </mxCell>
        <mxCell id="-0y_CvrlQRl--kAV1j4P-66" value="" style="edgeStyle=entityRelationEdgeStyle;fontSize=12;html=1;endArrow=ERzeroToMany;endFill=1;rounded=0;" edge="1" parent="1" source="-0y_CvrlQRl--kAV1j4P-64" target="-0y_CvrlQRl--kAV1j4P-30">
          <mxGeometry width="100" height="100" relative="1" as="geometry">
            <mxPoint x="140" y="60" as="sourcePoint" />
            <mxPoint x="240" y="-40" as="targetPoint" />
          </mxGeometry>
        </mxCell>
        <mxCell id="-0y_CvrlQRl--kAV1j4P-67" value="" style="edgeStyle=entityRelationEdgeStyle;fontSize=12;html=1;endArrow=ERzeroToMany;endFill=1;rounded=0;" edge="1" parent="1" source="-0y_CvrlQRl--kAV1j4P-64" target="-0y_CvrlQRl--kAV1j4P-14">
          <mxGeometry width="100" height="100" relative="1" as="geometry">
            <mxPoint x="140" y="60" as="sourcePoint" />
            <mxPoint x="240" y="-40" as="targetPoint" />
          </mxGeometry>
        </mxCell>
      </root>
    </mxGraphModel>
  </diagram>
</mxfile>
